<svg id="potentials" xmlns="http://www.w3.org/2000/svg" viewBox="0 0 546.53 99.41"><defs><style>.cls-1,.cls-2{fill:#efefef;}.cls-2{opacity:0.72;}</style></defs><title>logo-white</title><g id="white"><g id="logo"><path class="cls-1" d="M544.15,671.29c4.79,3.83,15,8.44,23.1,8.44,10.07,0,13.42-4,13.42-8.34,0-6.62-7.57-8.15-15.91-9.78S538,657.38,538,640.42c0-16.49,14.86-20.9,26.65-20.9s19.08,3.64,26.17,9l-7.38,10.16A36,36,0,0,0,563.23,632c-5.27,0-11.79,1.63-11.79,7.09,0,6.42,8.92,8.15,16.3,9.68,8.44,1.73,26.36,3.07,26.36,21.86,0,14.48-10.83,21.47-26.65,21.47-14.57,0-22.63-5.18-30-10.64Z" transform="translate(-375.54 -595.23)"/><path class="cls-1" d="M640.69,631.88c-12.65,0-22.91,10.83-22.91,23.87,0,13.23,10.26,23.87,22.91,23.87a21.34,21.34,0,0,0,19.17-11.12l12.56,5.08c-5.18,10.93-16.68,18.5-31.73,18.5a36.33,36.33,0,0,1,0-72.67c15.63,0,26.75,8.53,31.73,18.6l-12.56,5.08A21.73,21.73,0,0,0,640.69,631.88Z" transform="translate(-375.54 -595.23)"/><path class="cls-1" d="M675.59,690.75l35.86-70.18h1.34l35.86,70.18H734.07l-5.46-11H695.53l-5.37,11H675.59ZM702,668h20l-10-21.19Z" transform="translate(-375.54 -595.23)"/><path class="cls-1" d="M808,678.86v11.89H757.46V620.57h13.42v58.29H808Z" transform="translate(-375.54 -595.23)"/><path class="cls-1" d="M833.68,690.75H820.26V620.57h13.42v70.18Z" transform="translate(-375.54 -595.23)"/><path class="cls-1" d="M849.31,655.66c0-20,14.38-36.43,36.33-36.43s36.43,16.39,36.43,36.43-14.38,36.43-36.43,36.43S849.31,675.79,849.31,655.66Zm13.33,0c0,12.75,10.35,24,23,24s23-11.22,23-24-10.26-23.87-23-23.87S862.63,643,862.63,655.66Z" transform="translate(-375.54 -595.23)"/></g><g id="mountains"><polygon class="cls-2" points="144.03 99.41 82.53 0 21.02 99.41 144.03 99.41"/><polygon class="cls-1" points="102.09 99.41 51.05 16.91 0 99.41 102.09 99.41"/></g></g></svg>